Coordinates
version=1
nRows=8
nColumns=63
inDegrees=yes

Units are S.I. units (second, meters, Newtons, ...)
If the header above contains a line with 'inDegrees', this indicates whether rotational values are in degrees (yes) or radians (no).

endheader
time	pelvis_tilt	pelvis_list	pelvis_rotation	pelvis_tx	pelvis_ty	pelvis_tz	hip_flexion_r	hip_adduction_r	hip_rotation_r	knee_angle_r	knee_angle_r_beta	ankle_angle_r	subtalar_angle_r	mtp_angle_r	hip_flexion_l	hip_adduction_l	hip_rotation_l	knee_angle_l	knee_angle_l_beta	ankle_angle_l	subtalar_angle_l	mtp_angle_l	L5_S1_Flex_Ext	L5_S1_Lat_Bending	L5_S1_axial_rotation	L4_L5_Flex_Ext	L4_L5_Lat_Bending	L4_L5_axial_rotation	L3_L4_Flex_Ext	L3_L4_Lat_Bending	L3_L4_axial_rotation	L2_L3_Flex_Ext	L2_L3_Lat_Bending	L2_L3_axial_rotation	L1_L2_Flex_Ext	L1_L2_Lat_Bending	L1_L2_axial_rotation	L1_T12_Flex_Ext	L1_T12_Lat_Bending	L1_T12_axial_rotation	Abs_r3	Abs_r2	Abs_r1	Abs_t1	Abs_t2	neck_flexion	neck_bending	neck_rotation	arm_flex_r	arm_add_r	arm_rot_r	elbow_flex_r	pro_sup_r	wrist_flex_r	wrist_dev_r	arm_flex_l	arm_add_l	arm_rot_l	elbow_flex_l	pro_sup_l	wrist_flex_l	wrist_dev_l
      1.16666667	     -1.08364823	     -1.96062054	     95.95318329	      0.28114611	      0.82209293	      0.79776263	     -1.67846192	      0.56050765	     -7.32226816	      4.27519106	      0.07461616	     33.74596887	     12.70552619	      0.00000000	      0.97619714	     -2.59377965	      1.23439347	      8.11152195	      0.14157277	     32.18626363	      6.01152482	      0.00000000	     -0.10808655	      0.20416670	      1.11564341	     -0.20072754	      0.27154171	      1.18537112	     -0.17757540	      0.49641091	      1.18537112	     -0.12353212	      0.49641091	      0.97618798	     -0.10036917	      0.41633673	      0.90646027	     -0.06176066	      0.31625421	      0.83673255	     -0.77205144	      2.30957451	      6.20487393	      0.00000000	      0.00000000	     26.52097729	     -4.55264958	    -11.01257617	     11.12996911	     -4.35664552	     32.11917325	     44.07170180	     53.32090331	     -2.80863359	     15.96044236	     18.21668841	     -4.26285599	     56.37686903	     38.97036391	     57.81777728	     -3.80847134	     -2.66892011
      1.18333333	     -0.77831189	     -2.25484848	     96.52706287	      0.27984487	      0.82240749	      0.79733379	     -1.21586439	      0.88551595	     -6.85948278	      4.17425784	      0.07285454	     33.77276690	     11.46459033	      0.00000000	      1.24101201	     -2.76578367	      2.86596035	      7.64177654	      0.13337416	     32.34713812	      5.13967972	      0.00000000	     -0.07146477	      0.24085032	      1.09317929	     -0.13271723	      0.32033092	      1.16150300	     -0.11740948	      0.58560346	      1.16150300	     -0.08167709	      0.58560346	      0.95653188	     -0.06636219	      0.49114196	      0.88820817	     -0.04083497	      0.37307714	      0.81988447	     -0.51046574	      2.72454694	      6.07993526	      0.00000000	      0.00000000	     27.04007854	     -4.49875182	    -10.73749834	     10.23055444	     -4.91804093	     31.31321729	     44.85615764	     54.61563718	     -1.52983542	     16.06913118	     18.06055241	     -3.85741064	     56.96032160	     37.62140178	     57.57823118	     -0.71312250	     -5.88143549
      1.20000000	     -0.91386963	     -2.13386373	     96.57488090	      0.27952008	      0.82313217	      0.79458103	     -2.63401731	      1.24490177	      8.47164218	      1.36226362	      0.02377599	     29.46730465	     -8.54176846	      0.00000000	     -0.19371579	     -2.16921950	     12.77311132	      5.22357797	      0.09116863	     29.27822750	     -7.81398702	      0.00000000	     -0.07277660	      0.22637749	      1.16802155	     -0.13515343	      0.30108206	      1.24102290	     -0.11956468	      0.55041422	      1.24102290	     -0.08317638	      0.55041422	      1.02201886	     -0.06758035	      0.46162897	      0.94901751	     -0.04158455	      0.35065873	      0.87601616	     -0.51983601	      2.56082740	      6.49618547	      0.00000000	      0.00000000	     27.17804731	     -4.41040155	    -10.70484738	      9.20396071	     -5.04760751	     30.22092523	     45.17197942	     59.76619942	     -0.17920411	     15.81911076	     17.83071655	     -4.03264406	     57.87100355	     37.32871552	     59.90624505	      0.39912739	     -6.77227499
      1.21666667	     -0.79906527	     -2.42229675	     96.61734375	      0.27942631	      0.82385045	      0.79435821	     -1.86102614	      1.41281933	      8.38384014	      1.84211824	      0.03215103	     29.57947841	     -8.70315941	      0.00000000	      0.01658525	     -2.25880935	     12.80394084	      4.84555726	      0.08457093	     29.18170021	     -7.77251701	      0.00000000	     -0.05762688	      0.23919084	      1.20134485	     -0.10701887	      0.31812382	      1.27642890	     -0.09467520	      0.58156860	      1.27642890	     -0.06586176	      0.58156860	      1.05117674	     -0.05351232	      0.48775796	      0.97609269	     -0.03292800	      0.37050661	      0.90100863	     -0.41162302	      2.70577460	      6.68151963	      0.00000000	      0.00000000	     27.46977004	     -4.55094343	    -10.54102308	      9.08863815	     -5.82663961	     31.42933485	     45.54538016	     61.12992766	      0.24624580	     15.37031644	     17.98051141	     -4.18573927	     59.10854920	     37.09492790	     61.11904130	      1.09632636	     -7.07894126
      1.23333333	     -0.69745563	     -2.58690397	     96.45268187	      0.27997908	      0.82484930	      0.79421974	     -0.93687314	      1.58129263	      5.86074710	      2.92789379	      0.05110139	     30.49196282	     -5.47337111	      0.00000000	      0.22753638	     -2.31132021	     12.87497947	      4.83514996	      0.08438929	     29.10221809	     -8.48085727	      0.00000000	     -0.07391654	      0.24806025	      1.31112727	     -0.13727040	      0.32992014	      1.39307272	     -0.12143748	      0.60313370	      1.39307272	     -0.08447921	      0.60313370	      1.14723636	     -0.06863890	      0.50584447	      1.06529091	     -0.04223591	      0.38424533	      0.98334545	     -0.52797843	      2.80610718	      7.29209653	      0.00000000	      0.00000000	     27.61213571	     -5.05105642	    -10.98172126	      8.60396285	     -5.80847445	     29.02823397	     45.55651484	     75.90062210	      2.64199679	     13.56394867	     18.39389428	     -3.97182439	     59.22685780	     35.87591092	     74.36919342	      0.45101699	    -10.06737680
      1.25000000	     -0.74287373	     -3.13529738	     95.71358251	      0.28036081	      0.82536937	      0.79584831	      2.19465984	      0.54309342	    -10.47155855	      7.78556690	      0.13588378	     35.38499360	     15.69663271	      0.00000000	      0.99122241	     -2.14967911	     10.96988929	      5.07223370	      0.08852718	     29.41580287	     -7.35786122	      0.00000000	     -0.07057885	      0.24413941	      1.46880925	     -0.13107199	      0.32470541	      1.56060983	     -0.11595400	      0.59360056	      1.56060983	     -0.08066457	      0.59360056	      1.28520810	     -0.06553952	      0.49784908	      1.19340752	     -0.04032876	      0.37817195	      1.10160694	     -0.50413768	      2.76175383	      8.16907641	      0.00000000	      0.00000000	     27.80629881	     -5.68986439	    -11.48706322	      8.94543148	     -6.74578523	     29.71336551	     46.10409639	     84.77787214	      2.42314961	     11.25453950	     18.46084614	     -3.97584333	     58.05778693	     35.91855540	     83.34501166	      0.34687837	    -10.65219327
      1.26666667	     -0.68560892	     -3.36687300	     96.00829722	      0.28002221	      0.82566861	      0.79575606	      3.16526690	      0.50658746	    -10.92117021	      9.16879522	      0.16002566	     35.82487824	     15.36983214	      0.00000000	      1.33544516	     -2.13375543	     10.90181002	      5.12429278	      0.08943578	     29.67242295	     -7.29612386	      0.00000000	     -0.08288112	      0.24638997	      1.45067994	     -0.15391852	      0.32769866	      1.54134743	     -0.13616539	      0.59907258	      1.54134743	     -0.09472483	      0.59907258	      1.26934495	     -0.07696341	      0.50243843	      1.17867745	     -0.04735827	      0.38165807	      1.08800995	     -0.59201154	      2.78721265	      8.06824661	      0.00000000	      0.00000000	     27.90924537	     -6.17175998	    -12.06492532	      8.94719241	     -7.82596009	     30.37800055	     47.31052593	     87.02885212	      1.51190489	     10.40302850	     18.30093633	     -4.60248482	     58.48006637	     36.97747929	     84.20035759	      0.20041613	    -11.05786364
      1.28333333	     -0.79736835	     -3.72864336	     96.36817027	      0.27961180	      0.82607713	      0.79646723	      4.29999344	      0.11995337	    -12.98480351	     10.61024917	      0.18518378	     36.32302035	     16.83944536	      0.00000000	      2.06458044	     -1.93111548	      9.58105085	      5.60123582	      0.09776001	     30.23355837	     -5.67948151	      0.00000000	     -0.09025889	      0.22051033	      1.42315395	     -0.16761979	      0.29327874	      1.51210108	     -0.14828633	      0.53614881	      1.51210108	     -0.10315689	      0.53614881	      1.24525971	     -0.08381441	      0.44966466	      1.15631259	     -0.05157393	      0.34157050	      1.06736546	     -0.64471024	      2.49445694	      7.91515534	      0.00000000	      0.00000000	     27.96827582	     -6.76775069	    -13.20810858	      8.97494762	     -8.82246977	     31.15655578	     48.27585172	     88.54208942	     -2.78917181	      7.75222124	     17.62064986	     -5.26542541	     56.94016978	     38.56475526	     85.91258263	     -0.31953371	    -10.27663649
